<?xml version="1.0" encoding="UTF-8" standalone="no"?>
<!-- Created with Inkscape (http://www.inkscape.org/) -->

<svg
   width="512"
   height="512"
   viewBox="0 0 512 512"
   version="1.1"
   id="svg1"
   xml:space="preserve"
   inkscape:version="1.4 (unknown)"
   sodipodi:docname="icon.svg"
   inkscape:export-filename="icon.png"
   inkscape:export-xdpi="192"
   inkscape:export-ydpi="192"
   xmlns:inkscape="http://www.inkscape.org/namespaces/inkscape"
   xmlns:sodipodi="http://sodipodi.sourceforge.net/DTD/sodipodi-0.dtd"
   xmlns="http://www.w3.org/2000/svg"
   xmlns:svg="http://www.w3.org/2000/svg"><sodipodi:namedview
     id="namedview1"
     pagecolor="#656565"
     bordercolor="#000000"
     borderopacity="0.25"
     inkscape:showpageshadow="2"
     inkscape:pageopacity="0.0"
     inkscape:pagecheckerboard="0"
     inkscape:deskcolor="#d1d1d1"
     inkscape:document-units="px"
     showgrid="false"
     showguides="false"
     inkscape:zoom="0.7071068"
     inkscape:cx="-510.53108"
     inkscape:cy="448.30569"
     inkscape:window-width="3440"
     inkscape:window-height="1371"
     inkscape:window-x="0"
     inkscape:window-y="0"
     inkscape:window-maximized="1"
     inkscape:current-layer="layer1"
     inkscape:lockguides="true"><inkscape:grid
       id="grid1"
       units="px"
       originx="0"
       originy="0"
       spacingx="1"
       spacingy="1"
       empcolor="#0099e5"
       empopacity="0.30196078"
       color="#0099e5"
       opacity="0.14901961"
       empspacing="5"
       enabled="true"
       visible="false" /></sodipodi:namedview><defs
     id="defs1"><linearGradient
       id="linearGradient17"><stop
         style="stop-color:#ffffff;stop-opacity:1;"
         offset="0"
         id="stop40" /><stop
         style="stop-color:#d4adf0;stop-opacity:1;"
         offset="0.63070911"
         id="stop41" /><stop
         style="stop-color:#8e3dc7;stop-opacity:1;"
         offset="1"
         id="stop42" /></linearGradient><linearGradient
       id="linearGradient17-1"><stop
         style="stop-color:#ffffff;stop-opacity:0;"
         offset="0"
         id="stop17" /><stop
         style="stop-color:#8e3dc7;stop-opacity:1;"
         offset="1"
         id="stop18" /></linearGradient><inkscape:perspective
       sodipodi:type="inkscape:persp3d"
       inkscape:vp_x="-181.82724 : 263.34552 : 1"
       inkscape:vp_y="0 : 1000 : 0"
       inkscape:vp_z="808.17276 : 743.34552 : 1"
       inkscape:persp3d-origin="254.17276 : 167.01219 : 1"
       id="perspective9" /></defs><g
     inkscape:label="Layer 1"
     inkscape:groupmode="layer"
     id="layer1"><text
       xml:space="preserve"
       style="font-style:normal;font-variant:normal;font-weight:normal;font-stretch:normal;font-size:18.6667px;line-height:0.5;font-family:barlow;-inkscape-font-specification:barlow;text-align:start;letter-spacing:-1px;writing-mode:lr-tb;direction:ltr;text-anchor:start;opacity:1;fill:#3a8ee9;fill-opacity:1;stroke:none;stroke-width:4.939;stroke-linecap:butt;stroke-linejoin:miter;stroke-miterlimit:4;stroke-dasharray:none;stroke-dashoffset:0;stroke-opacity:1"
       x="3432.2964"
       y="-1021.0622"
       id="text30"><tspan
         sodipodi:role="line"
         id="tspan30"
         x="3432.2964"
         y="-1021.0622"
         style="font-style:normal;font-variant:normal;font-weight:600;font-stretch:normal;font-family:barlow;-inkscape-font-specification:'barlow Semi-Bold'">Aa</tspan></text><rect
       style="fill:#ffffff;fill-opacity:1"
       id="rect1-5-1-0-3-8-3-6-5"
       width="512"
       height="512"
       x="0"
       y="0"
       ry="80" /><g
       id="g19"
       transform="matrix(2.0445571,0,0,2.0445571,777.16354,-1841.3287)"><path
         style="fill:#ee4c37;fill-opacity:1"
         d="m -342.50583,1060.6031 v -70.69926 l 87.52753,-49.68616 33.14662,18.72677 -87.20322,50.35905 -0.45206,28.3892 21.52634,12.7447 1e-5,-29.0596 87.1897,-49.97132 33.47093,19.33676 v 70.73126 l -86.89125,49.8078 z"
         id="path2"
         sodipodi:nodetypes="ccccccccccccc" /><path
         style="fill:#ac3026;fill-opacity:1"
         d="m -254.59037,1040.743 87.29039,-49.99976 v 70.73126 l -86.98699,49.9294 z"
         id="path1"
         sodipodi:nodetypes="ccccc" /></g><g
       id="g3"
       transform="matrix(0.75132278,0,0,0.75132278,73.062422,90.053769)"><ellipse
         style="fill:#ffffff;fill-opacity:1;stroke:#000000;stroke-width:15;stroke-dasharray:none;stroke-opacity:1"
         id="path3"
         cx="355.29092"
         cy="355.62076"
         rx="130.75499"
         ry="125.59859" /><g
         id="path4"
         style="opacity:1;fill:#1a1a1a"
         transform="translate(0.61699479,-20.996664)"><path
           style="baseline-shift:baseline;display:inline;overflow:visible;vector-effect:none;fill:#1a1a1a;enable-background:accumulate;stop-color:#000000;stop-opacity:1"
           d="m 354.88691,296.0293 c -2.56218,-0.0343 -5.1433,0.94173 -7.20118,2.875 l -3.03515,2.85156 v 44.45313 c 0,11.58887 -0.0485,22.12548 -0.12696,29.74609 -0.002,0.21927 -0.005,0.30316 -0.008,0.51758 -2.11343,-2.07388 -4.03707,-3.94485 -6.5664,-6.4668 -6.60845,-6.58911 -10.32641,-10.25978 -12.87696,-12.50586 -1.27527,-1.12304 -2.25341,-1.91882 -3.43359,-2.58984 -1.18019,-0.67102 -2.86365,-1.12891 -4.06836,-1.12891 -5.73666,0 -10.4966,5.0201 -9.98438,10.79688 0.12256,1.38207 0.77227,2.95378 1.56055,4.14648 0.78828,1.19271 1.76196,2.34173 3.22852,3.94922 2.93311,3.21498 7.87995,8.20919 16.6914,17.02539 l 8.91797,8.92188 v -0.16602 c 2.69545,2.6532 6.98693,6.98132 8.51172,8.35547 1.56125,1.407 2.65371,2.32384 3.99023,3.08008 1.33653,0.75623 3.27857,1.13476 4.24219,1.13476 0.9525,0 2.88469,-0.36916 4.22071,-1.12109 1.33601,-0.75193 2.41853,-1.66068 3.95507,-3.04883 C 365.97738,404.07918 370.81658,399.22975 380,390 c 5.33907,-5.36604 10.24701,-10.32889 13.86132,-14.01172 1.80716,-1.84141 3.28818,-3.36051 4.34961,-4.46093 0.53072,-0.55021 0.95531,-0.99437 1.27735,-1.33789 0.16102,-0.17176 0.29447,-0.31451 0.42383,-0.45899 0.12935,-0.14448 0.0255,0.14699 0.66796,-0.86523 2.17107,-3.42078 1.49643,-7.39932 -0.20117,-10.12891 -1.6976,-2.72959 -4.71841,-4.95508 -8.60156,-4.95508 -1.2046,0 -2.88816,0.45792 -4.06836,1.12891 -1.1802,0.67099 -2.1583,1.46682 -3.43359,2.58984 -2.55058,2.24605 -6.26849,5.91675 -12.87696,12.50586 -2.52933,2.52195 -4.45298,4.39292 -6.5664,6.4668 -0.002,-0.20415 -0.006,-0.28364 -0.008,-0.49219 -0.0785,-7.60531 -0.12696,-18.12183 -0.12696,-29.6875 v -44.17969 l -2.72265,-2.89648 c -1.98237,-2.10976 -4.52572,-3.15319 -7.08789,-3.1875 z m -70.00782,76.86328 c -3.80247,-0.0423 -7.50329,2.01768 -9.29101,5.94141 -0.91364,2.00521 -0.66963,2.42637 -0.7793,3.53711 -0.10967,1.11073 -0.18542,2.40696 -0.24414,3.89062 -0.11744,2.96732 -0.15799,6.65088 -0.13086,10.43164 0.0271,3.78076 0.12256,7.646 0.2832,10.95117 0.16065,3.30518 0.30435,5.80566 0.75391,7.9375 2.94025,13.9426 13.78323,25.42397 27.52148,29.11914 l 5.0586,0.52149 v 0 c 0.55031,0.0293 0.9686,0.0628 1.60351,0.0898 3.02842,0.12888 7.01089,0.23527 11.65821,0.32032 9.29464,0.17008 21.23123,0.25624 33.17578,0.25976 11.94454,0.004 23.88991,-0.0756 33.20312,-0.24023 4.65661,-0.0823 8.64962,-0.18548 11.69141,-0.3125 1.52089,-0.0635 2.80112,-0.13257 3.8457,-0.21289 1.04458,-0.0803 1.60117,-0.0666 2.83008,-0.38672 14.01244,-3.64968 24.84972,-15.00597 27.82227,-29.16407 0.44711,-2.12954 0.59212,-4.62997 0.75195,-7.93554 0.15983,-3.30557 0.25457,-7.1705 0.28125,-10.95117 0.0267,-3.78068 -0.0135,-7.46338 -0.13086,-10.42969 -0.0587,-1.48316 -0.13472,-2.78077 -0.24414,-3.89063 -0.10942,-1.10985 0.13605,-1.52617 -0.7793,-3.53515 -3.81072,-8.3636 -17.03317,-7.01313 -19.05859,1.95508 -0.19773,0.8757 -0.15142,0.96226 -0.17969,1.33203 -0.0283,0.36977 -0.0523,0.7873 -0.0762,1.27929 -0.0477,0.98399 -0.092,2.25498 -0.13477,3.75977 -0.0855,3.00957 -0.15963,6.93704 -0.20312,11.08984 l -0.14453,13.85352 -1.42188,3 c -1.79319,3.78529 -4.8024,6.84087 -8.43945,8.62695 l -2.3418,1.15039 h -47.08594 -47.08593 l -2.25391,-1.10742 c -3.32565,-1.63325 -6.90858,-5.27002 -8.58984,-8.81055 l -1.36719,-2.88086 -0.2793,-15.27734 c -0.1495,-8.17522 -0.2,-12.18277 -0.46484,-14.89062 -0.13242,-1.35393 -0.28179,-2.52719 -0.95117,-3.91211 -0.66938,-1.38493 -1.86985,-2.41482 -2.23828,-2.71289 -1.96499,-1.58949 -4.28297,-2.37112 -6.56446,-2.39649 z"
           id="path21"
           sodipodi:nodetypes="cccsccssssssscccssssssssssssssssccsccccssssssscccsscssscssssssssssccccccccccssscss" /></g></g></g></svg>
